<?xml version="1.0" standalone="no"?>
<!DOCTYPE svg PUBLIC "-//W3C//DTD SVG 20010904//EN"
 "http://www.w3.org/TR/2001/REC-SVG-20010904/DTD/svg10.dtd">
<svg version="1.0" xmlns="http://www.w3.org/2000/svg"
 width="512.000000pt" height="512.000000pt" viewBox="0 0 512.000000 512.000000"
 preserveAspectRatio="xMidYMid meet">
<metadata>
Created by potrace 1.16, written by Peter Selinger 2001-2019
</metadata>
<g transform="translate(0.000000,512.000000) scale(0.100000,-0.100000)"
 stroke="none">
<path d="M2455 4503 c-78 -28 -143 -79 -185 -144 -50 -77 -63 -137 -59 -262
l4 -101 -92 -38 c-324 -132 -536 -372 -637 -719 -38 -133 -93 -412 -111 -564
-21 -181 -38 -270 -80 -415 -61 -211 -115 -296 -272 -425 -169 -140 -206 -217
-207 -430 -1 -103 3 -140 17 -177 22 -56 72 -103 124 -117 24 -7 229 -11 569
-11 436 0 534 -2 543 -14 6 -7 20 -47 30 -89 23 -90 46 -136 99 -204 150 -189
453 -231 662 -91 105 69 180 185 202 309 6 35 16 70 21 77 7 9 129 12 546 12
343 0 550 4 574 11 52 14 102 61 124 117 14 36 18 75 18 172 0 213 -42 301
-209 435 -151 122 -210 214 -272 428 -35 123 -62 267 -84 452 -23 196 -98 520
-150 651 -86 217 -244 404 -436 515 -32 19 -101 53 -154 75 l-95 41 0 129 c0
122 -2 132 -29 188 -37 76 -96 135 -171 171 -77 38 -211 46 -290 18z m196
-282 c64 -65 20 -171 -71 -171 -33 0 -48 6 -71 29 -64 65 -20 171 71 171 33 0
48 -6 71 -29z m134 -466 c291 -60 506 -243 606 -516 52 -143 115 -437 139
-654 32 -290 117 -574 216 -728 58 -89 109 -143 215 -228 94 -75 118 -113 121
-194 4 -83 154 -75 -1502 -75 -1656 0 -1506 -8 -1502 75 3 81 27 119 121 194
180 144 257 257 334 496 44 132 76 284 87 400 15 156 27 226 71 425 57 254 90
346 164 461 101 157 246 262 445 323 155 48 320 55 485 21z m10 -2666 c17 -27
-8 -83 -58 -133 -51 -51 -104 -76 -159 -76 -81 0 -187 76 -209 150 -21 71 -25
70 210 70 138 0 212 -4 216 -11z"/>
</g>
</svg>
