<?xml version="1.0" standalone="no"?>
<!DOCTYPE svg PUBLIC "-//W3C//DTD SVG 20010904//EN"
 "http://www.w3.org/TR/2001/REC-SVG-20010904/DTD/svg10.dtd">
<svg version="1.0" xmlns="http://www.w3.org/2000/svg"
 width="512.000000pt" height="512.000000pt" viewBox="0 0 512.000000 512.000000"
 preserveAspectRatio="xMidYMid meet">
<metadata>
Created by potrace 1.16, written by Peter Selinger 2001-2019
</metadata>
<g transform="translate(0.000000,512.000000) scale(0.100000,-0.100000)"
stroke="none">
<path d="M2200 4639 c-359 -65 -687 -212 -960 -429 -97 -77 -283 -266 -351
-355 -208 -272 -348 -597 -409 -947 -29 -167 -29 -529 0 -696 61 -350 201
-675 409 -947 64 -84 252 -276 341 -348 274 -221 615 -373 982 -437 167 -29
529 -29 696 0 367 64 708 216 982 437 89 72 277 264 341 348 208 272 348 597
409 947 29 167 29 529 0 696 -64 367 -216 708 -437 982 -72 89 -264 277 -348
341 -272 208 -597 348 -947 409 -161 28 -550 27 -708 -1z m540 -129 c474 -59
882 -253 1201 -572 181 -181 358 -451 442 -674 105 -278 158 -638 128 -869
-54 -417 -174 -718 -411 -1030 -263 -346 -683 -615 -1112 -710 -312 -70 -515
-71 -835 -6 -516 106 -1004 460 -1280 928 -205 348 -307 802 -263 1163 82 659
411 1171 971 1508 335 201 799 306 1159 262z"/>
<path d="M2275 3640 c-217 -57 -439 -195 -632 -392 -97 -99 -113 -126 -113
-185 0 -32 8 -45 64 -98 35 -34 70 -74 78 -91 27 -52 40 -165 47 -419 9 -275
8 -270 82 -391 22 -36 59 -110 83 -165 64 -144 91 -185 176 -269 85 -84 172
-135 335 -195 90 -34 106 -37 180 -33 144 7 362 108 480 223 81 79 119 136
181 275 28 63 70 145 92 181 71 117 71 110 74 565 l3 409 -26 71 c-62 171
-151 255 -354 334 -33 13 -97 47 -143 77 -109 70 -147 88 -219 107 -87 23
-296 21 -388 -4z m337 -167 c24 -9 67 -33 97 -52 123 -83 158 -102 231 -126
113 -38 183 -85 220 -149 28 -51 37 -86 24 -99 -3 -3 -29 12 -57 34 -70 53
-173 105 -222 113 -46 8 -96 -7 -172 -52 -77 -46 -130 -61 -312 -87 -243 -36
-312 -64 -451 -185 -67 -58 -78 -55 -110 27 -13 32 -36 84 -52 115 -15 32 -28
68 -28 80 0 52 218 227 387 312 159 79 345 108 445 69z m328 -494 c53 -32 88
-69 119 -124 39 -68 50 -124 60 -301 7 -139 10 -157 39 -217 34 -73 33 -91 -6
-157 -11 -19 -39 -86 -61 -148 -49 -142 -90 -209 -166 -279 -86 -79 -287 -173
-369 -173 -79 0 -279 96 -363 174 -75 70 -116 139 -168 286 -24 66 -53 135
-65 154 -29 48 -28 80 9 156 17 36 31 76 31 90 0 14 7 63 16 110 20 111 63
177 154 237 80 54 132 70 285 89 137 16 260 49 355 93 79 36 86 36 130 10z"/>
<path d="M2205 2368 c-28 -16 -35 -28 -35 -63 1 -47 24 -70 71 -70 48 0 69 22
69 71 0 23 -8 39 -26 53 -30 24 -50 26 -79 9z"/>
<path d="M2845 2368 c-28 -16 -35 -28 -35 -63 1 -47 24 -70 71 -70 48 0 69 22
69 71 0 23 -8 39 -26 53 -30 24 -50 26 -79 9z"/>
</g>
</svg>
